<svg xmlns="http://www.w3.org/2000/svg" viewBox="-7 -7 14 14" width="512" height="512">
  <!-- Dark background -->
  <rect x="-7" y="-7" width="14" height="14" rx="2" ry="2" fill="#0D0D0F"/>

  <!-- Ports -->
  <g transform="translate(-0.7, -4.7) rotate(-30)"><polygon points="0,-0.55 0.48,0.275 -0.48,0.275" fill="#C4956A" stroke="#2A2520" stroke-width="0.03" opacity="0.85"/><text transform="rotate(30)" x="0" y="0.05" text-anchor="middle" font-size="0.25" font-family="system-ui">&#x2753;</text></g>
  <g transform="translate(2.7, -4.6) rotate(30)"><polygon points="0,-0.55 0.48,0.275 -0.48,0.275" fill="#C4956A" stroke="#2A2520" stroke-width="0.03" opacity="0.85"/><text transform="rotate(-30)" x="0" y="0.05" text-anchor="middle" font-size="0.25" font-family="system-ui">&#x2753;</text></g>
  <g transform="translate(-3.7, -2.9) rotate(-30)"><polygon points="0,-0.55 0.48,0.275 -0.48,0.275" fill="#8BBF7A" stroke="#2A2520" stroke-width="0.03" opacity="0.85"/><text transform="rotate(30)" x="0" y="0.05" text-anchor="middle" font-size="0.25" font-family="system-ui">&#x1F40F;</text></g>
  <g transform="translate(4.4, -1.7) rotate(-30)"><polygon points="0,-0.55 0.48,0.275 -0.48,0.275" fill="#E85D4A" stroke="#2A2520" stroke-width="0.03" opacity="0.85"/><text transform="rotate(30)" x="0" y="0.05" text-anchor="middle" font-size="0.25" font-family="system-ui">&#x1F9F1;</text></g>
  <g transform="translate(-5.4, 0) rotate(-90)"><polygon points="0,-0.55 0.48,0.275 -0.48,0.275" fill="#C4956A" stroke="#2A2520" stroke-width="0.03" opacity="0.85"/><text transform="rotate(90)" x="0" y="0.05" text-anchor="middle" font-size="0.25" font-family="system-ui">&#x2753;</text></g>
  <g transform="translate(4.4, 1.7) rotate(90)"><polygon points="0,-0.55 0.48,0.275 -0.48,0.275" fill="#4A9B5A" stroke="#2A2520" stroke-width="0.03" opacity="0.85"/><text transform="rotate(-90)" x="0" y="0.05" text-anchor="middle" font-size="0.25" font-family="system-ui">&#x1FAB5;</text></g>
  <g transform="translate(-3.7, 3) rotate(-30)"><polygon points="0,-0.55 0.48,0.275 -0.48,0.275" fill="#8A9BAE" stroke="#2A2520" stroke-width="0.03" opacity="0.85"/><text transform="rotate(30)" x="0" y="0.05" text-anchor="middle" font-size="0.25" font-family="system-ui">&#x1FAA8;</text></g>
  <g transform="translate(-0.7, 4.7) rotate(-30)"><polygon points="0,-0.55 0.48,0.275 -0.48,0.275" fill="#E8C44A" stroke="#2A2520" stroke-width="0.03" opacity="0.85"/><text transform="rotate(30)" x="0" y="0.05" text-anchor="middle" font-size="0.25" font-family="system-ui">&#x1F33E;</text></g>
  <g transform="translate(2.7, 4.7) rotate(30)"><polygon points="0,-0.55 0.48,0.275 -0.48,0.275" fill="#C4956A" stroke="#2A2520" stroke-width="0.03" opacity="0.85"/><text transform="rotate(-30)" x="0" y="0.05" text-anchor="middle" font-size="0.25" font-family="system-ui">&#x2753;</text></g>

  <!-- Hex tiles -->
  <g transform="translate(-2, -3.46)"><polygon points="0,-1 0.866,-0.5 0.866,0.5 0,1 -0.866,0.5 -0.866,-0.5" transform="rotate(60)" fill="#4A9B5A" stroke="#2A2520" stroke-width="0.03"/><polygon points="0,-1 0.866,-0.5 0.866,0.5 0,1 -0.866,0.5 -0.866,-0.5" transform="rotate(60)" fill="none" stroke="rgba(0,0,0,0.3)" stroke-width="0.06"/></g>
  <g transform="translate(0, -3.46)"><polygon points="0,-1 0.866,-0.5 0.866,0.5 0,1 -0.866,0.5 -0.866,-0.5" transform="rotate(60)" fill="#8BBF7A" stroke="#2A2520" stroke-width="0.03"/><polygon points="0,-1 0.866,-0.5 0.866,0.5 0,1 -0.866,0.5 -0.866,-0.5" transform="rotate(60)" fill="none" stroke="rgba(0,0,0,0.3)" stroke-width="0.06"/></g>
  <g transform="translate(2, -3.46)"><polygon points="0,-1 0.866,-0.5 0.866,0.5 0,1 -0.866,0.5 -0.866,-0.5" transform="rotate(60)" fill="#4A9B5A" stroke="#2A2520" stroke-width="0.03"/><polygon points="0,-1 0.866,-0.5 0.866,0.5 0,1 -0.866,0.5 -0.866,-0.5" transform="rotate(60)" fill="none" stroke="rgba(0,0,0,0.3)" stroke-width="0.06"/></g>
  <g transform="translate(-3, -1.73)"><polygon points="0,-1 0.866,-0.5 0.866,0.5 0,1 -0.866,0.5 -0.866,-0.5" transform="rotate(60)" fill="#E8C44A" stroke="#2A2520" stroke-width="0.03"/><polygon points="0,-1 0.866,-0.5 0.866,0.5 0,1 -0.866,0.5 -0.866,-0.5" transform="rotate(60)" fill="none" stroke="rgba(0,0,0,0.3)" stroke-width="0.06"/></g>
  <g transform="translate(-1, -1.73)"><polygon points="0,-1 0.866,-0.5 0.866,0.5 0,1 -0.866,0.5 -0.866,-0.5" transform="rotate(60)" fill="#E85D4A" stroke="#2A2520" stroke-width="0.03"/><polygon points="0,-1 0.866,-0.5 0.866,0.5 0,1 -0.866,0.5 -0.866,-0.5" transform="rotate(60)" fill="none" stroke="rgba(0,0,0,0.3)" stroke-width="0.06"/></g>
  <g transform="translate(1, -1.73)"><polygon points="0,-1 0.866,-0.5 0.866,0.5 0,1 -0.866,0.5 -0.866,-0.5" transform="rotate(60)" fill="#E8C44A" stroke="#2A2520" stroke-width="0.03"/><polygon points="0,-1 0.866,-0.5 0.866,0.5 0,1 -0.866,0.5 -0.866,-0.5" transform="rotate(60)" fill="none" stroke="rgba(0,0,0,0.3)" stroke-width="0.06"/></g>
  <g transform="translate(3, -1.73)"><polygon points="0,-1 0.866,-0.5 0.866,0.5 0,1 -0.866,0.5 -0.866,-0.5" transform="rotate(60)" fill="#8BBF7A" stroke="#2A2520" stroke-width="0.03"/><polygon points="0,-1 0.866,-0.5 0.866,0.5 0,1 -0.866,0.5 -0.866,-0.5" transform="rotate(60)" fill="none" stroke="rgba(0,0,0,0.3)" stroke-width="0.06"/></g>
  <g transform="translate(-4, 0)"><polygon points="0,-1 0.866,-0.5 0.866,0.5 0,1 -0.866,0.5 -0.866,-0.5" transform="rotate(60)" fill="#4A9B5A" stroke="#2A2520" stroke-width="0.03"/><polygon points="0,-1 0.866,-0.5 0.866,0.5 0,1 -0.866,0.5 -0.866,-0.5" transform="rotate(60)" fill="none" stroke="rgba(0,0,0,0.3)" stroke-width="0.06"/></g>
  <g transform="translate(-2, 0)"><polygon points="0,-1 0.866,-0.5 0.866,0.5 0,1 -0.866,0.5 -0.866,-0.5" transform="rotate(60)" fill="#8A9BAE" stroke="#2A2520" stroke-width="0.03"/><polygon points="0,-1 0.866,-0.5 0.866,0.5 0,1 -0.866,0.5 -0.866,-0.5" transform="rotate(60)" fill="none" stroke="rgba(0,0,0,0.3)" stroke-width="0.06"/></g>
  <g transform="translate(0, 0)"><polygon points="0,-1 0.866,-0.5 0.866,0.5 0,1 -0.866,0.5 -0.866,-0.5" transform="rotate(60)" fill="#C4956A" stroke="#2A2520" stroke-width="0.03"/><polygon points="0,-1 0.866,-0.5 0.866,0.5 0,1 -0.866,0.5 -0.866,-0.5" transform="rotate(60)" fill="none" stroke="rgba(0,0,0,0.3)" stroke-width="0.06"/></g>
  <g transform="translate(2, 0)"><polygon points="0,-1 0.866,-0.5 0.866,0.5 0,1 -0.866,0.5 -0.866,-0.5" transform="rotate(60)" fill="#E85D4A" stroke="#2A2520" stroke-width="0.03"/><polygon points="0,-1 0.866,-0.5 0.866,0.5 0,1 -0.866,0.5 -0.866,-0.5" transform="rotate(60)" fill="none" stroke="rgba(0,0,0,0.3)" stroke-width="0.06"/></g>
  <g transform="translate(4, 0)"><polygon points="0,-1 0.866,-0.5 0.866,0.5 0,1 -0.866,0.5 -0.866,-0.5" transform="rotate(60)" fill="#8A9BAE" stroke="#2A2520" stroke-width="0.03"/><polygon points="0,-1 0.866,-0.5 0.866,0.5 0,1 -0.866,0.5 -0.866,-0.5" transform="rotate(60)" fill="none" stroke="rgba(0,0,0,0.3)" stroke-width="0.06"/></g>
  <g transform="translate(-3, 1.73)"><polygon points="0,-1 0.866,-0.5 0.866,0.5 0,1 -0.866,0.5 -0.866,-0.5" transform="rotate(60)" fill="#E8C44A" stroke="#2A2520" stroke-width="0.03"/><polygon points="0,-1 0.866,-0.5 0.866,0.5 0,1 -0.866,0.5 -0.866,-0.5" transform="rotate(60)" fill="none" stroke="rgba(0,0,0,0.3)" stroke-width="0.06"/></g>
  <g transform="translate(-1, 1.73)"><polygon points="0,-1 0.866,-0.5 0.866,0.5 0,1 -0.866,0.5 -0.866,-0.5" transform="rotate(60)" fill="#E85D4A" stroke="#2A2520" stroke-width="0.03"/><polygon points="0,-1 0.866,-0.5 0.866,0.5 0,1 -0.866,0.5 -0.866,-0.5" transform="rotate(60)" fill="none" stroke="rgba(0,0,0,0.3)" stroke-width="0.06"/></g>
  <g transform="translate(1, 1.73)"><polygon points="0,-1 0.866,-0.5 0.866,0.5 0,1 -0.866,0.5 -0.866,-0.5" transform="rotate(60)" fill="#8A9BAE" stroke="#2A2520" stroke-width="0.03"/><polygon points="0,-1 0.866,-0.5 0.866,0.5 0,1 -0.866,0.5 -0.866,-0.5" transform="rotate(60)" fill="none" stroke="rgba(0,0,0,0.3)" stroke-width="0.06"/></g>
  <g transform="translate(3, 1.73)"><polygon points="0,-1 0.866,-0.5 0.866,0.5 0,1 -0.866,0.5 -0.866,-0.5" transform="rotate(60)" fill="#8BBF7A" stroke="#2A2520" stroke-width="0.03"/><polygon points="0,-1 0.866,-0.5 0.866,0.5 0,1 -0.866,0.5 -0.866,-0.5" transform="rotate(60)" fill="none" stroke="rgba(0,0,0,0.3)" stroke-width="0.06"/></g>
  <g transform="translate(-2, 3.46)"><polygon points="0,-1 0.866,-0.5 0.866,0.5 0,1 -0.866,0.5 -0.866,-0.5" transform="rotate(60)" fill="#4A9B5A" stroke="#2A2520" stroke-width="0.03"/><polygon points="0,-1 0.866,-0.5 0.866,0.5 0,1 -0.866,0.5 -0.866,-0.5" transform="rotate(60)" fill="none" stroke="rgba(0,0,0,0.3)" stroke-width="0.06"/></g>
  <g transform="translate(0, 3.46)"><polygon points="0,-1 0.866,-0.5 0.866,0.5 0,1 -0.866,0.5 -0.866,-0.5" transform="rotate(60)" fill="#8BBF7A" stroke="#2A2520" stroke-width="0.03"/><polygon points="0,-1 0.866,-0.5 0.866,0.5 0,1 -0.866,0.5 -0.866,-0.5" transform="rotate(60)" fill="none" stroke="rgba(0,0,0,0.3)" stroke-width="0.06"/></g>
  <g transform="translate(2, 3.46)"><polygon points="0,-1 0.866,-0.5 0.866,0.5 0,1 -0.866,0.5 -0.866,-0.5" transform="rotate(60)" fill="#E8C44A" stroke="#2A2520" stroke-width="0.03"/><polygon points="0,-1 0.866,-0.5 0.866,0.5 0,1 -0.866,0.5 -0.866,-0.5" transform="rotate(60)" fill="none" stroke="rgba(0,0,0,0.3)" stroke-width="0.06"/></g>
</svg>
